<svg xmlns="http://www.w3.org/2000/svg" width="17" height="16" fill="none">
  <path fill="#141414" d="M15.041.157h-2.005a1.11 1.11 0 0 0-1.12 1.098v1.964a1.11 1.11 0 0 0 1.12 1.098h2.005a1.11 1.11 0 0 0 1.12-1.098V1.255a1.11 1.11 0 0 0-1.12-1.098ZM3.865 11.52H1.706C1.04 11.52.5 12.012.5 12.618v1.964c0 .607.54 1.098 1.206 1.098h2.16c.665 0 1.205-.491 1.205-1.098v-1.964c0-.607-.54-1.098-1.206-1.098ZM3.625 5.79H1.62C1.001 5.79.5 6.283.5 6.89v1.964a1.11 1.11 0 0 0 1.12 1.098h2.005a1.11 1.11 0 0 0 1.12-1.098V6.89c0-.607-.502-1.098-1.12-1.098ZM9.383 11.49H7.378c-.618 0-1.12.49-1.12 1.097v1.964a1.11 1.11 0 0 0 1.12 1.098h2.005a1.11 1.11 0 0 0 1.12-1.098v-1.964c0-.607-.501-1.098-1.12-1.098ZM3.625.043H1.62C1.001.043.5.535.5 1.141v1.964a1.11 1.11 0 0 0 1.12 1.098h2.005a1.11 1.11 0 0 0 1.12-1.098V1.141c0-.606-.502-1.098-1.12-1.098ZM9.538 5.849H7.533c-.618 0-1.12.491-1.12 1.097v1.965a1.11 1.11 0 0 0 1.12 1.098h2.005c.619 0 1.12-.492 1.12-1.098V6.946c0-.606-.501-1.097-1.12-1.097ZM15.167 11.49h-2.005c-.619 0-1.12.49-1.12 1.097v1.964a1.11 1.11 0 0 0 1.12 1.098h2.005a1.11 1.11 0 0 0 1.12-1.098v-1.964c0-.607-.502-1.098-1.12-1.098ZM9.295.112H7.291c-.619 0-1.12.491-1.12 1.098v1.964a1.11 1.11 0 0 0 1.12 1.098h2.004a1.11 1.11 0 0 0 1.12-1.098V1.21c0-.607-.501-1.098-1.12-1.098ZM15.022 5.963h-2.005c-.618 0-1.12.491-1.12 1.098v1.964a1.11 1.11 0 0 0 1.12 1.098h2.005a1.11 1.11 0 0 0 1.12-1.098V7.061c0-.607-.502-1.098-1.12-1.098Z"/>
</svg>
